name rise44.8762peak52.3436fall86.788.mot
datacolumns 19
datarows 23
range 19.72159400000000 19.75825900000000
endheader
time	ground_force1_vx	ground_force1_vy	ground_force1_vz	ground_force1_px	ground_force1_py	ground_force1_pz	ground_force2_vx	ground_force2_vy	ground_force2_vz	ground_force2_px	ground_force2_py	ground_force2_pz	ground_torque1_x	ground_torque1_y	ground_torque1_z	ground_torque2_x	ground_torque2_y	ground_torque2_z	
19.72159400000000	-51.58066600000000	751.00154499999996	58.69966200000000	0.05065800000000	0.00000000000000	0.12851000000000	-6.04829100000000	60.61475200000000	2.51022200000000	0.28676400000000	0.00000000000000	-0.08705400000000	0.00000000000000	20.66327600000000	0.00000000000000	0.00000000000000	0.48892300000000	0.00000000000000	
19.72325700000000	-51.69250800000000	747.40015100000005	58.19944200000000	0.05023600000000	0.00000000000000	0.12828700000000	-6.24899700000000	67.23658500000001	2.50265900000000	0.29012500000000	0.00000000000000	-0.08758000000000	0.00000000000000	20.53408800000000	0.00000000000000	0.00000000000000	0.46351500000000	0.00000000000000	
19.72492200000000	-51.80969400000000	743.70283900000004	57.67685000000000	0.04982300000000	0.00000000000000	0.12806000000000	-6.33619400000000	73.69682000000000	2.43022600000000	0.29322900000000	0.00000000000000	-0.08806000000000	0.00000000000000	20.40604700000000	0.00000000000000	0.00000000000000	0.41917400000000	0.00000000000000	
19.72659000000000	-51.93223500000000	739.91112199999998	57.13186200000000	0.04941900000000	0.00000000000000	0.12783000000000	-6.31037100000000	79.97858300000000	2.29400300000000	0.29610200000000	0.00000000000000	-0.08850000000000	0.00000000000000	20.27924600000000	0.00000000000000	0.00000000000000	0.35613400000000	0.00000000000000	
19.72825900000000	-52.06012100000000	736.02651300000002	56.56450200000000	0.04902300000000	0.00000000000000	0.12759700000000	-6.17590400000000	86.08748100000000	2.09699700000000	0.29876500000000	0.00000000000000	-0.08890500000000	0.00000000000000	20.15376800000000	0.00000000000000	0.00000000000000	0.27517600000000	0.00000000000000	
19.72992500000000	-52.19332000000000	732.05052000000001	55.97484400000000	0.04863500000000	0.00000000000000	0.12736000000000	-5.94014800000000	92.04770499999999	1.84363800000000	0.30123700000000	0.00000000000000	-0.08928000000000	0.00000000000000	20.02968800000000	0.00000000000000	0.00000000000000	0.17749100000000	0.00000000000000	
19.73158700000000	-52.33177700000000	727.98463900000002	55.36301400000000	0.04825500000000	0.00000000000000	0.12711900000000	-5.61244700000000	97.89729400000000	1.53925600000000	0.30353200000000	0.00000000000000	-0.08962800000000	0.00000000000000	19.90707400000000	0.00000000000000	0.00000000000000	0.06454100000000	0.00000000000000	
19.73325300000000	-52.47541300000000	723.83034399999997	54.72918900000000	0.04788300000000	0.00000000000000	0.12687500000000	-5.20315600000000	103.68306699999999	1.18956500000000	0.30566500000000	0.00000000000000	-0.08995400000000	0.00000000000000	19.78598500000000	0.00000000000000	0.00000000000000	-0.06209300000000	0.00000000000000	
19.73492300000000	-52.62412600000000	719.58907699999997	54.07359700000000	0.04751900000000	0.00000000000000	0.12662800000000	-4.72275600000000	109.45572100000000	0.80021800000000	0.30764700000000	0.00000000000000	-0.09025900000000	0.00000000000000	19.66647400000000	0.00000000000000	0.00000000000000	-0.20083300000000	0.00000000000000	
19.73658600000000	-52.77778800000000	715.26224500000001	53.39652300000000	0.04716300000000	0.00000000000000	0.12637700000000	-4.18111300000000	115.26543900000000	0.37643000000000	0.30948900000000	0.00000000000000	-0.09054600000000	0.00000000000000	19.54858200000000	0.00000000000000	0.00000000000000	-0.35021900000000	0.00000000000000	
19.73825700000000	-52.93624500000000	710.85121200000003	52.69830500000000	0.04681400000000	0.00000000000000	0.12612200000000	-3.58691600000000	121.15827899999999	-0.07729100000000	0.31120000000000	0.00000000000000	-0.09081700000000	0.00000000000000	19.43234500000000	0.00000000000000	0.00000000000000	-0.50897700000000	0.00000000000000	
19.73992500000000	-53.09931700000000	706.35728700000004	51.97933600000000	0.04647200000000	0.00000000000000	0.12586400000000	-2.94731200000000	127.17347100000001	-0.55731000000000	0.31278800000000	0.00000000000000	-0.09107400000000	0.00000000000000	19.31778600000000	0.00000000000000	0.00000000000000	-0.67608000000000	0.00000000000000	
19.74158900000000	-53.26679500000000	701.78172300000006	51.24006400000000	0.04613700000000	0.00000000000000	0.12560300000000	-2.26771900000000	133.34168399999999	-1.06094300000000	0.31426000000000	0.00000000000000	-0.09131800000000	0.00000000000000	19.20492400000000	0.00000000000000	0.00000000000000	-0.85076100000000	0.00000000000000	
19.74326000000000	-53.43844300000000	697.12570700000003	50.48099300000000	0.04580800000000	0.00000000000000	0.12533800000000	-1.55181100000000	139.68420800000001	-1.58643800000000	0.31562200000000	0.00000000000000	-0.09155000000000	0.00000000000000	19.09376600000000	0.00000000000000	0.00000000000000	-1.03251600000000	0.00000000000000	
19.74492500000000	-53.61399600000000	692.39035699999999	49.70268100000000	0.04548600000000	0.00000000000000	0.12507000000000	-0.80164000000000	146.21295000000001	-2.13289700000000	0.31688200000000	0.00000000000000	-0.09177200000000	0.00000000000000	18.98431000000000	0.00000000000000	0.00000000000000	-1.22107700000000	0.00000000000000	
19.74659400000000	-53.79315400000000	687.57671300000004	48.90573900000000	0.04516900000000	0.00000000000000	0.12479900000000	-0.01786000000000	152.93110300000001	-2.70014000000000	0.31804300000000	0.00000000000000	-0.09198500000000	0.00000000000000	18.87654400000000	0.00000000000000	0.00000000000000	-1.41637100000000	0.00000000000000	
19.74825800000000	-53.97559200000000	682.68573300000003	48.09083500000000	0.04485800000000	0.00000000000000	0.12452500000000	0.79997600000000	159.83430000000001	-3.28854000000000	0.31911200000000	0.00000000000000	-0.09218900000000	0.00000000000000	18.77045000000000	0.00000000000000	0.00000000000000	-1.61847900000000	0.00000000000000	
19.74992300000000	-54.16094500000000	677.71829000000002	47.25868500000000	0.04455300000000	0.00000000000000	0.12424700000000	1.65309400000000	166.91209300000000	-3.89884800000000	0.32009200000000	0.00000000000000	-0.09238500000000	0.00000000000000	18.66599800000000	0.00000000000000	0.00000000000000	-1.82757800000000	0.00000000000000	
19.75159400000000	-54.34882100000000	672.67516599999999	46.41006100000000	0.04425100000000	0.00000000000000	0.12396700000000	2.54316500000000	174.14957100000001	-4.53201600000000	0.32098700000000	0.00000000000000	-0.09257300000000	0.00000000000000	18.56314700000000	0.00000000000000	0.00000000000000	-2.04389100000000	0.00000000000000	
19.75325300000000	-54.53878800000000	667.55704900000001	45.54578000000000	0.04395500000000	0.00000000000000	0.12368400000000	3.47199900000000	181.52898600000000	-5.18903700000000	0.32180200000000	0.00000000000000	-0.09275500000000	0.00000000000000	18.46184800000000	0.00000000000000	0.00000000000000	-2.26764300000000	0.00000000000000	
19.75491900000000	-54.73038200000000	662.36452999999995	44.66671200000000	0.04366200000000	0.00000000000000	0.12339800000000	4.44127900000000	189.03125600000001	-5.87080500000000	0.32253900000000	0.00000000000000	-0.09293100000000	0.00000000000000	18.36204400000000	0.00000000000000	0.00000000000000	-2.49901800000000	0.00000000000000	
19.75658700000000	-54.92310100000000	657.09810200000004	43.77376800000000	0.04337200000000	0.00000000000000	0.12311000000000	5.45234500000000	196.63726399999999	-6.57801300000000	0.32320100000000	0.00000000000000	-0.09310100000000	0.00000000000000	18.26366400000000	0.00000000000000	0.00000000000000	-2.73813400000000	0.00000000000000	
19.75825900000000	-55.11640700000000	651.75815899999998	42.86790600000000	0.04308500000000	0.00000000000000	0.12282000000000	6.50604000000000	204.32889599999999	-7.31107500000000	0.32379300000000	0.00000000000000	-0.09326600000000	0.00000000000000	18.16663100000000	0.00000000000000	0.00000000000000	-2.98501700000000	0.00000000000000	
